<svg width="19" height="19" viewBox="0 0 19 19" fill="none" xmlns="http://www.w3.org/2000/svg">
<g clip-path="url(#clip0_1814_303)">
<path d="M9.38029 0.534714C14.2619 0.534714 18.5184 4.56461 18.5184 9.21591C18.5184 13.7886 14.3578 17.3872 9.38029 17.3872C8.31567 17.3879 7.25769 17.2195 6.24592 16.8883C5.82191 17.2995 5.67662 17.4393 4.77651 18.3074C4.12771 18.7972 3.51728 18.9635 2.97174 18.6546C2.42162 18.344 2.25622 17.739 2.36862 16.9422L2.73415 14.823C1.14686 13.3299 0.242188 11.356 0.242188 9.21591C0.242188 4.56461 4.4978 0.534714 9.38029 0.534714ZM9.38029 1.81405C5.18955 1.81405 1.52152 5.28652 1.52152 9.21591C1.52152 11.0846 2.35492 12.8053 3.82432 14.0865L3.8426 14.102L4.114 14.3378L4.05278 14.6942L3.92667 15.4289L3.89286 15.6245L3.63242 17.1395C3.6175 17.2416 3.60835 17.3444 3.60501 17.4475V17.5343C3.60501 17.5386 3.6044 17.541 3.60318 17.5416C3.60958 17.5325 3.73386 17.4932 3.94677 17.3378L5.92974 15.4134L6.30806 15.5559C7.29085 15.9224 8.33139 16.1096 9.38029 16.1088C13.6898 16.1088 17.2391 13.0384 17.2391 9.21591C17.2391 5.28744 13.571 1.81405 9.38029 1.81405ZM5.01867 7.67431C5.20277 7.66758 5.38633 7.69803 5.55839 7.76384C5.73045 7.82965 5.88748 7.92947 6.0201 8.05733C6.15272 8.18519 6.2582 8.33848 6.33025 8.50802C6.4023 8.67756 6.43943 8.85989 6.43943 9.04411C6.43943 9.22833 6.4023 9.41065 6.33025 9.5802C6.2582 9.74974 6.15272 9.90302 6.0201 10.0309C5.88748 10.1587 5.73045 10.2586 5.55839 10.3244C5.38633 10.3902 5.20277 10.4206 5.01867 10.4139C4.66404 10.401 4.32825 10.251 4.08194 9.99549C3.83563 9.74002 3.698 9.39898 3.698 9.04411C3.698 8.68924 3.83563 8.3482 4.08194 8.09273C4.32825 7.83725 4.66404 7.68726 5.01867 7.67431ZM9.58589 7.67431C9.76999 7.66758 9.95355 7.69803 10.1256 7.76384C10.2977 7.82965 10.4547 7.92947 10.5873 8.05733C10.7199 8.18519 10.8254 8.33848 10.8975 8.50802C10.9695 8.67756 11.0067 8.85989 11.0067 9.04411C11.0067 9.22833 10.9695 9.41065 10.8975 9.5802C10.8254 9.74974 10.7199 9.90302 10.5873 10.0309C10.4547 10.1587 10.2977 10.2586 10.1256 10.3244C9.95355 10.3902 9.76999 10.4206 9.58589 10.4139C9.23126 10.401 8.89547 10.251 8.64916 9.99549C8.40285 9.74002 8.26522 9.39898 8.26522 9.04411C8.26522 8.68924 8.40285 8.3482 8.64916 8.09273C8.89547 7.83725 9.23126 7.68726 9.58589 7.67431ZM14.1522 7.67431C14.3363 7.66758 14.5199 7.69803 14.6919 7.76384C14.864 7.82965 15.021 7.92947 15.1536 8.05733C15.2862 8.18519 15.3917 8.33848 15.4638 8.50802C15.5358 8.67756 15.573 8.85989 15.573 9.04411C15.573 9.22833 15.5358 9.41065 15.4638 9.5802C15.3917 9.74974 15.2862 9.90302 15.1536 10.0309C15.021 10.1587 14.864 10.2586 14.6919 10.3244C14.5199 10.3902 14.3363 10.4206 14.1522 10.4139C13.7976 10.401 13.4618 10.251 13.2155 9.99549C12.9692 9.74002 12.8315 9.39898 12.8315 9.04411C12.8315 8.68924 12.9692 8.3482 13.2155 8.09273C13.4618 7.83725 13.7976 7.68726 14.1522 7.67431Z" fill="white"/>
</g>
<defs>
<clipPath id="clip0_1814_303">
<rect width="18.2762" height="18.2762" fill="white" transform="translate(0.242188 0.534714)"/>
</clipPath>
</defs>
</svg>
